PathFileType	3	(X/Y/Z)	squats_1__fused_aligned.trc
DataRate	CameraRate	NumFrames	NumMarkers	Units	OrigDataRate	OrigDataStartFrame	OrigNumFrames
100.0	100.0	13	19	mm	100.0	546	1650
Frame#	Time	pelvis			neck			head			hip_left			hip_right			knee_left			knee_right			ankle_left			ankle_right			heel_left			heel_right			toe_left			toe_right			shoulder_left			shoulder_right			elbow_left			elbow_right			wrist_left			wrist_right			
		X1	Y1	Z1	X2	Y2	Z2	X3	Y3	Z3	X4	Y4	Z4	X5	Y5	Z5	X6	Y6	Z6	X7	Y7	Z7	X8	Y8	Z8	X9	Y9	Z9	X10	Y10	Z10	X11	Y11	Z11	X12	Y12	Z12	X13	Y13	Z13	X14	Y14	Z14	X15	Y15	Z15	X16	Y16	Z16	X17	Y17	Z17	X18	Y18	Z18	X19	Y19	Z19	
546	5.45000	80.975719	784.812306	158.406768	64.827570	1301.414568	-86.963172	55.582358	1396.758489	-238.046716	1.638053	784.292216	163.348080	160.313239	785.332397	153.465513	-104.125711	478.897325	-115.412263	222.407269	483.911085	-141.240999	-97.282391	143.799572	99.157648	240.995646	143.186913	63.857281	-91.011518	105.492955	144.215497	240.980108	107.901251	111.637904	-119.382360	69.734233	-68.849001	253.137371	52.401946	-102.616893	-109.408255	1263.236688	-26.050178	245.762061	1251.261867	-47.986136	-220.826982	1010.171462	50.841044	344.394387	981.103035	-26.534056	-206.669383	908.215534	-178.078156	300.154828	880.788264	-248.944970
547	5.46000	80.663120	778.365758	160.663089	64.455691	1292.504157	-87.870474	55.041835	1386.516245	-239.545946	1.241432	777.838225	165.509952	160.084693	778.893291	155.816276	-104.319002	477.525472	-117.962756	222.942208	481.894690	-142.729828	-97.033351	143.966126	98.706613	240.654482	142.235227	63.973638	-90.806377	105.858692	143.941064	240.535560	107.096602	111.873738	-118.753191	69.565557	-68.988548	252.821896	51.172562	-102.226245	-109.745241	1254.893652	-26.647863	245.369410	1242.800776	-48.748323	-221.827585	1002.602661	50.997634	344.539264	973.148310	-26.750384	-207.548134	901.685463	-178.166740	300.528912	873.554336	-248.993314
548	5.47000	80.350521	771.919210	162.919410	64.083812	1283.593745	-88.777777	54.501311	1376.274002	-241.045176	0.844811	771.384235	167.671825	159.856147	772.454185	158.167040	-104.512292	476.153618	-120.513248	223.477146	479.878295	-144.218658	-96.784312	144.132680	98.255579	240.313319	141.283541	64.089996	-90.601237	106.224429	143.666631	240.091012	106.291953	112.109571	-118.124023	69.396882	-69.128094	252.506422	49.943179	-101.835597	-110.082226	1246.550616	-27.245549	244.976759	1234.339684	-49.510510	-222.828188	995.033860	51.154224	344.684142	965.193585	-26.966712	-208.426885	895.155393	-178.255325	300.902997	866.320407	-249.041658
549	5.48000	80.037922	765.472661	165.175731	63.711933	1274.683334	-89.685080	53.960787	1366.031758	-242.544406	0.448191	764.930244	169.833697	159.627601	766.015079	160.517804	-104.705583	474.781765	-123.063741	224.012084	477.861899	-145.707487	-96.535273	144.299235	97.804544	239.972156	140.331854	64.206354	-90.396097	106.590166	143.392198	239.646464	105.487305	112.345405	-117.494855	69.228206	-69.267641	252.190948	48.713795	-101.444949	-110.419211	1238.207580	-27.843235	244.584108	1225.878593	-50.272696	-223.828791	987.465059	51.310815	344.829020	957.238860	-27.183040	-209.305635	888.625322	-178.343910	301.277081	859.086478	-249.090002
550	5.49000	79.725322	759.026113	167.432052	63.340054	1265.772922	-90.592382	53.420264	1355.789515	-244.043636	0.051570	758.476253	171.995569	159.399055	759.575973	162.868568	-104.898873	473.409911	-125.614234	224.547022	475.845504	-147.196316	-96.286234	144.465789	97.353509	239.630993	139.380168	64.322711	-90.190957	106.955903	143.117765	239.201916	104.682656	112.581239	-116.865686	69.059531	-69.407187	251.875473	47.484411	-101.054301	-110.756197	1229.864544	-28.440921	244.191457	1217.417502	-51.034883	-224.829395	979.896258	51.467405	344.973898	949.284135	-27.399367	-210.184386	882.095252	-178.432495	301.651165	851.852549	-249.138346
551	5.50000	79.412723	752.579565	169.688373	62.968176	1256.862511	-91.499685	52.879740	1345.547272	-245.542865	-0.345051	752.022263	174.157442	159.170509	753.136867	165.219331	-105.092164	472.038057	-128.164726	225.081961	473.829109	-148.685146	-96.037194	144.632344	96.902475	239.289830	138.428482	64.439069	-89.985817	107.321640	142.843332	238.757369	103.878007	112.817072	-116.236518	68.890856	-69.546734	251.559999	46.255028	-100.663653	-111.093182	1221.521508	-29.038607	243.798806	1208.956410	-51.797070	-225.829998	972.327457	51.623996	345.118775	941.329410	-27.615695	-211.063137	875.565182	-178.521080	302.025250	844.618620	-249.186690
552	5.51000	79.100124	746.133017	171.944693	62.596297	1247.952100	-92.406987	52.339217	1335.305028	-247.042095	-0.741672	745.568272	176.319314	158.941964	746.697761	167.570095	-105.285454	470.666204	-130.715219	225.616899	471.812714	-150.173975	-95.788155	144.798898	96.451440	238.948667	137.476796	64.555427	-89.780676	107.687377	142.568899	238.312821	103.073359	113.052906	-115.607349	68.722180	-69.686280	251.244525	45.025644	-100.273005	-111.430168	1213.178472	-29.636292	243.406156	1200.495319	-52.559257	-226.830601	964.758656	51.780586	345.263653	933.374685	-27.832023	-211.941887	869.035111	-178.609665	302.399334	837.384691	-249.235033
553	5.52000	78.787525	739.686468	174.201014	62.224418	1239.041688	-93.314290	51.798693	1325.062785	-248.541325	-1.138292	739.114281	178.481186	158.713418	740.258655	169.920859	-105.478745	469.294350	-133.265712	226.151837	469.796318	-151.662805	-95.539116	144.965452	96.000405	238.607503	136.525109	64.671784	-89.575536	108.053114	142.294466	237.868273	102.268710	113.288740	-114.978181	68.553505	-69.825827	250.929050	43.796260	-99.882358	-111.767153	1204.835435	-30.233978	243.013505	1192.034227	-53.321444	-227.831205	957.189855	51.937176	345.408531	925.419960	-28.048351	-212.820638	862.505041	-178.698250	302.773418	830.150762	-249.283377
554	5.53000	78.474926	733.239920	176.457335	61.852539	1230.131277	-94.221592	51.258169	1314.820542	-250.040555	-1.534913	732.660291	180.643059	158.484872	733.819549	172.271623	-105.672035	467.922496	-135.816204	226.686776	467.779923	-153.151634	-95.290077	145.132007	95.549370	238.266340	135.573423	64.788142	-89.370396	108.418851	142.020033	237.423725	101.464061	113.524573	-114.349012	68.384830	-69.965374	250.613576	42.566877	-99.491710	-112.104139	1196.492399	-30.831664	242.620854	1183.573136	-54.083630	-228.831808	949.621054	52.093767	345.553409	917.465235	-28.264678	-213.699389	855.974970	-178.786835	303.147503	822.916833	-249.331721
555	5.54000	77.830857	726.720251	177.336910	61.700050	1221.346132	-95.421595	51.015705	1305.023299	-251.553214	-2.228273	726.211842	181.382851	157.890116	727.228659	173.290972	-106.304134	466.883352	-138.739939	227.234510	464.669418	-154.128457	-95.453983	145.349770	94.321299	238.135755	132.907032	64.279252	-89.578985	108.818390	140.959919	237.189948	98.856615	113.067912	-114.194190	68.191555	-70.943647	250.540368	39.646066	-99.862566	-112.259371	1188.297413	-31.878010	242.435639	1175.068521	-55.028150	-229.985134	942.256762	51.792299	345.848200	909.328948	-28.565683	-215.164711	848.735339	-179.199114	303.924192	815.379568	-249.853629
556	5.55000	77.186789	720.200581	178.216485	61.547561	1212.560987	-96.621598	50.773241	1295.226057	-253.065874	-2.921633	719.763393	182.122643	157.295361	720.637769	174.310322	-106.936233	465.844208	-141.663674	227.782244	461.558912	-155.105280	-95.617889	145.567533	93.093228	238.005170	130.240641	63.770362	-89.787575	109.217930	139.899804	236.956172	96.249168	112.611250	-114.039367	67.998280	-71.921920	250.467160	36.725255	-100.233421	-112.414603	1180.102427	-32.924357	242.250424	1166.563906	-55.972670	-231.138460	934.892469	51.490831	346.142991	901.192660	-28.866689	-216.630033	841.495708	-179.611394	304.700881	807.842304	-250.375538
557	5.56000	76.542721	713.680912	179.096060	61.395072	1203.775842	-97.821600	50.530777	1285.428815	-254.578533	-3.614993	713.314943	182.862435	156.700606	714.046879	175.329672	-107.568331	464.805064	-144.587408	228.329979	458.448406	-156.082103	-95.781795	145.785296	91.865157	237.874584	127.574250	63.261472	-89.996164	109.617469	138.839690	236.722395	93.641722	112.154588	-113.884545	67.805006	-72.900193	250.393952	33.804445	-100.604277	-112.569835	1171.907441	-33.970703	242.065208	1158.059291	-56.917189	-232.291786	927.528177	51.189364	346.437782	893.056373	-29.167694	-218.095356	834.256077	-180.023673	305.477570	800.305039	-250.897446
558	5.57000	75.898653	707.161243	179.975635	61.242583	1194.990697	-99.021603	50.288312	1275.631572	-256.091192	-4.308352	706.866494	183.602228	156.105851	707.455989	176.349022	-108.200430	463.765920	-147.511143	228.877713	455.337901	-157.058926	-95.945700	146.003059	90.637086	237.743999	124.907859	62.752582	-90.204753	110.017009	137.779575	236.488619	91.034275	111.697927	-113.729722	67.611731	-73.878466	250.320744	30.883634	-100.975133	-112.725068	1163.712456	-35.017050	241.879993	1149.554676	-57.861709	-233.445113	920.163884	50.887896	346.732574	884.920085	-29.468699	-219.560678	827.016446	-180.435953	306.254259	792.767775	-251.419355
